<svg xmlns="http://www.w3.org/2000/svg" width="668" height="1028" viewBox="0 0 668 1028" font-family="ui-monospace,Menlo,Consolas,monospace">
<defs><filter id="glow" x="-60%" y="-60%" width="220%" height="220%"><feGaussianBlur stdDeviation="1.3" result="b"/><feMerge><feMergeNode in="b"/><feMergeNode in="SourceGraphic"/></feMerge></filter><pattern id="px" width="7" height="7" patternUnits="userSpaceOnUse"><rect width="7" height="7" fill="#0a0f0a"/><rect width="1" height="1" fill="#54c24c" fill-opacity="0.13"/></pattern><marker id="arr" markerWidth="10" markerHeight="10" refX="8" refY="4" orient="auto"><path d="M0,0 L9,4 L0,8 z" fill="#5cc450"/></marker></defs>
<rect width="668" height="1028" fill="#0a0f0a"/>
<rect width="668" height="1028" fill="url(#px)"/>
<text x="16" y="28" font-size="14" font-weight="700" letter-spacing="3" fill="#54c24c" filter="url(#glow)">ARBORETO</text>
<line x1="272.0" y1="130" x2="272.0" y2="162" stroke="#54c24c" stroke-width="7" opacity="0.16" filter="url(#glow)"/>
<line x1="272.0" y1="130" x2="272.0" y2="162" stroke="#5cc450" stroke-width="2.6" marker-end="url(#arr)"/>
<text x="283" y="150" font-size="12" font-weight="700" fill="#93d98a">PREPARE</text>
<line x1="272.0" y1="222" x2="272.0" y2="254" stroke="#54c24c" stroke-width="7" opacity="0.16" filter="url(#glow)"/>
<line x1="272.0" y1="222" x2="272.0" y2="254" stroke="#5cc450" stroke-width="2.6" marker-end="url(#arr)"/>
<text x="283" y="242" font-size="11" font-weight="700" fill="#93d98a">✓ pass</text>
<line x1="272.0" y1="302" x2="272.0" y2="334" stroke="#54c24c" stroke-width="7" opacity="0.16" filter="url(#glow)"/>
<line x1="272.0" y1="302" x2="272.0" y2="334" stroke="#5cc450" stroke-width="2.6" marker-end="url(#arr)"/>
<line x1="272.0" y1="416" x2="272.0" y2="448" stroke="#54c24c" stroke-width="7" opacity="0.16" filter="url(#glow)"/>
<line x1="272.0" y1="416" x2="272.0" y2="448" stroke="#5cc450" stroke-width="2.6" marker-end="url(#arr)"/>
<text x="283" y="436" font-size="12" font-weight="700" fill="#93d98a">VERIFY</text>
<line x1="272.0" y1="508" x2="272.0" y2="540" stroke="#54c24c" stroke-width="7" opacity="0.16" filter="url(#glow)"/>
<line x1="272.0" y1="508" x2="272.0" y2="540" stroke="#5cc450" stroke-width="2.6" marker-end="url(#arr)"/>
<text x="283" y="528" font-size="11" font-weight="700" fill="#93d98a">✓ pass</text>
<line x1="272.0" y1="588" x2="272.0" y2="620" stroke="#54c24c" stroke-width="7" opacity="0.16" filter="url(#glow)"/>
<line x1="272.0" y1="588" x2="272.0" y2="620" stroke="#5cc450" stroke-width="2.6" marker-end="url(#arr)"/>
<line x1="272.0" y1="702" x2="272.0" y2="734" stroke="#54c24c" stroke-width="7" opacity="0.16" filter="url(#glow)"/>
<line x1="272.0" y1="702" x2="272.0" y2="734" stroke="#5cc450" stroke-width="2.6" marker-end="url(#arr)"/>
<text x="283" y="722" font-size="12" font-weight="700" fill="#93d98a">EXECUTE</text>
<line x1="272.0" y1="794" x2="272.0" y2="826" stroke="#54c24c" stroke-width="7" opacity="0.16" filter="url(#glow)"/>
<line x1="272.0" y1="794" x2="272.0" y2="826" stroke="#5cc450" stroke-width="2.6" marker-end="url(#arr)"/>
<text x="283" y="814" font-size="11" font-weight="700" fill="#93d98a">✓ pass</text>
<line x1="272.0" y1="874" x2="272.0" y2="906" stroke="#54c24c" stroke-width="7" opacity="0.16" filter="url(#glow)"/>
<line x1="272.0" y1="874" x2="272.0" y2="906" stroke="#5cc450" stroke-width="2.6" marker-end="url(#arr)"/>
<rect x="151.0" y="48" width="242" height="82" fill="#0e1d0d" stroke="#93d98a" stroke-width="2.2" filter="url(#glow)"/>
<text x="164.0" y="71" font-size="14" font-weight="700" letter-spacing="1" fill="#93d98a" filter="url(#glow)">READY<tspan font-size="11" letter-spacing="0" fill="#74ad68">  · entry</tspan></text>
<text x="164.0" y="89" font-size="11" fill="#74ad68">task-ledger submitted, nothing</text>
<text x="164.0" y="103" font-size="11" fill="#74ad68">run</text>
<polygon points="272.0,162 351.0,192.0 272.0,222 193.0,192.0" fill="#0c1a0c" stroke="#54c24c" stroke-width="1.8" filter="url(#glow)"/>
<text x="272" y="196" font-size="11" font-weight="600" text-anchor="middle" fill="#54c24c">g_prepared</text>
<text x="367" y="196" font-size="11" fill="#93d98a">⊨ inputs_present ∧ store_writable</text>
<line x1="193.0" y1="192.0" x2="175" y2="192.0" stroke="#d4794e" stroke-width="2"/>
<text x="184" y="186" font-size="11" font-weight="700" text-anchor="middle" fill="#d4794e">✗ fail</text>
<rect x="55.0" y="175" width="120" height="34" fill="#170d09" stroke="#d4794e" stroke-width="1.6"/>
<text x="115.0" y="196" font-size="11" text-anchor="middle" fill="#e7a684">exit / log</text>
<rect x="160.0" y="254" width="224" height="48" fill="#0a1609" stroke="#54c24c" stroke-width="1.5" filter="url(#glow)"/>
<line x1="168.0" y1="254" x2="168.0" y2="302" stroke="#54c24c" stroke-width="1.4"/>
<line x1="376.0" y1="254" x2="376.0" y2="302" stroke="#54c24c" stroke-width="1.4"/>
<text x="272" y="282" font-size="12" font-weight="600" text-anchor="middle" fill="#93d98a">validator:check_inputs</text>
<rect x="151.0" y="334" width="242" height="82" fill="#0b140a" stroke="#54c24c" stroke-width="1.5" filter="url(#glow)"/>
<text x="164.0" y="357" font-size="14" font-weight="700" letter-spacing="1" fill="#54c24c" filter="url(#glow)">PREPARED<tspan font-size="11" letter-spacing="0" fill="#74ad68"></tspan></text>
<text x="164.0" y="375" font-size="11" fill="#74ad68">inputs validated — required vars</text>
<text x="164.0" y="389" font-size="11" fill="#74ad68">present, runtime + store</text>
<text x="164.0" y="403" font-size="11" fill="#74ad68">reachable</text>
<polygon points="272.0,448 351.0,478.0 272.0,508 193.0,478.0" fill="#0c1a0c" stroke="#54c24c" stroke-width="1.8" filter="url(#glow)"/>
<text x="272" y="482" font-size="11" font-weight="600" text-anchor="middle" fill="#54c24c">g_verified</text>
<text x="367" y="482" font-size="11" fill="#93d98a">⊨ sequence_resolved ∧ contracts_present</text>
<line x1="193.0" y1="478.0" x2="175" y2="478.0" stroke="#d4794e" stroke-width="2"/>
<text x="184" y="472" font-size="11" font-weight="700" text-anchor="middle" fill="#d4794e">✗ fail</text>
<rect x="55.0" y="461" width="120" height="34" fill="#170d09" stroke="#d4794e" stroke-width="1.6"/>
<text x="115.0" y="482" font-size="11" text-anchor="middle" fill="#e7a684">exit / log</text>
<rect x="160.0" y="540" width="224" height="48" fill="#0a1609" stroke="#54c24c" stroke-width="1.5" filter="url(#glow)"/>
<line x1="168.0" y1="540" x2="168.0" y2="588" stroke="#54c24c" stroke-width="1.4"/>
<line x1="376.0" y1="540" x2="376.0" y2="588" stroke="#54c24c" stroke-width="1.4"/>
<text x="272" y="568" font-size="12" font-weight="600" text-anchor="middle" fill="#93d98a">validator:check_contract</text>
<rect x="151.0" y="620" width="242" height="82" fill="#0b140a" stroke="#54c24c" stroke-width="1.5" filter="url(#glow)"/>
<text x="164.0" y="643" font-size="14" font-weight="700" letter-spacing="1" fill="#54c24c" filter="url(#glow)">VERIFIED<tspan font-size="11" letter-spacing="0" fill="#74ad68"></tspan></text>
<text x="164.0" y="661" font-size="11" fill="#74ad68">the plan is contract-bound — the</text>
<text x="164.0" y="675" font-size="11" fill="#74ad68">perk&#x27;s tool sequence resolves</text>
<text x="164.0" y="689" font-size="11" fill="#74ad68">and its contract (I/O + checks)</text>
<polygon points="272.0,734 351.0,764.0 272.0,794 193.0,764.0" fill="#0c1a0c" stroke="#54c24c" stroke-width="1.8" filter="url(#glow)"/>
<text x="272" y="768" font-size="11" font-weight="600" text-anchor="middle" fill="#54c24c">g_governed</text>
<text x="367" y="768" font-size="11" fill="#93d98a">⊨ governed_run ∧ contract_checks_pass</text>
<line x1="193.0" y1="764.0" x2="175" y2="764.0" stroke="#d4794e" stroke-width="2"/>
<text x="184" y="758" font-size="11" font-weight="700" text-anchor="middle" fill="#d4794e">✗ fail</text>
<rect x="55.0" y="747" width="120" height="34" fill="#170d09" stroke="#d4794e" stroke-width="1.6"/>
<text x="115.0" y="768" font-size="11" text-anchor="middle" fill="#e7a684">exit / log</text>
<rect x="160.0" y="826" width="224" height="48" fill="#0a1609" stroke="#54c24c" stroke-width="1.5" filter="url(#glow)"/>
<line x1="168.0" y1="826" x2="168.0" y2="874" stroke="#54c24c" stroke-width="1.4"/>
<line x1="376.0" y1="826" x2="376.0" y2="874" stroke="#54c24c" stroke-width="1.4"/>
<text x="272" y="854" font-size="12" font-weight="600" text-anchor="middle" fill="#93d98a">perk:sequence</text>
<rect x="151.0" y="906" width="242" height="82" fill="#0f2410" stroke="#93d98a" stroke-width="2.2" filter="url(#glow)"/>
<text x="164.0" y="929" font-size="14" font-weight="700" letter-spacing="1" fill="#93d98a" filter="url(#glow)">EXECUTED<tspan font-size="11" letter-spacing="0" fill="#74ad68">  · terminal</tspan></text>
<text x="164.0" y="947" font-size="11" fill="#74ad68">the perk&#x27;s tool sequence ran</text>
<text x="164.0" y="961" font-size="11" fill="#74ad68">ONLY via executor.py — each step</text>
<text x="164.0" y="975" font-size="11" fill="#74ad68">is recorded to the run-ledger AS</text>
</svg>
